PathFileType  4	(X/Y/Z) C:\Users\antoi\Documents\MyRepositories\mobilecap\ResultsAnalysis
DataRate	CameraRate	NumFrames	NumMarkers	Units	OrigDataRate	OrigDataStartFrame	OrigNumFrames
100.0	100.0	4	51	mm	100.0	63	248
Frame#	Time	r_knee			r_shank_antsup			r_ankle			r_calc			r_5meta			r_toe			L_knee			L_shank_antsup			L_ankle			L_calc			L_5meta			L_toe			r_sh2			r_sh3			r_sh4			L_sh2			L_sh3			r_thigh1			r_thigh2			r_thigh3			r_thigh4			r_thigh5			L_thigh1			L_thigh2			L_thigh3			L_thigh4			r.ASIS			r.PSIS			L.ASIS			L.PSIS			C7			R_Shoulder			L_Shoulder			R_Sternum			L_Sternum			R_humerus			R_elbow_med			R_elbow_lat			R_forearm			R_wrist_radius			R_wrist_ulna			L_humerus			L_elbow_med			L_elbow_lat			L_forearm			L_wrist_radius			L_wrist_ulna			R_HJC			L_HJC			R_HJC_reg			L_HJC_reg			
		X1	Y1	Z1	X2	Y2	Z2	X3	Y3	Z3	X4	Y4	Z4	X5	Y5	Z5	X6	Y6	Z6	X7	Y7	Z7	X8	Y8	Z8	X9	Y9	Z9	X10	Y10	Z10	X11	Y11	Z11	X12	Y12	Z12	X13	Y13	Z13	X14	Y14	Z14	X15	Y15	Z15	X16	Y16	Z16	X17	Y17	Z17	X18	Y18	Z18	X19	Y19	Z19	X20	Y20	Z20	X21	Y21	Z21	X22	Y22	Z22	X23	Y23	Z23	X24	Y24	Z24	X25	Y25	Z25	X26	Y26	Z26	X27	Y27	Z27	X28	Y28	Z28	X29	Y29	Z29	X30	Y30	Z30	X31	Y31	Z31	X32	Y32	Z32	X33	Y33	Z33	X34	Y34	Z34	X35	Y35	Z35	X36	Y36	Z36	X37	Y37	Z37	X38	Y38	Z38	X39	Y39	Z39	X40	Y40	Z40	X41	Y41	Z41	X42	Y42	Z42	X43	Y43	Z43	X44	Y44	Z44	X45	Y45	Z45	X46	Y46	Z46	X47	Y47	Z47	X48	Y48	Z48	X49	Y49	Z49	X50	Y50	Z50	X51	Y51	Z51	

63	0.62000000	-851.47623	760.01278	-433.60303	-882.92049	634.78833	-449.83946	-1173.99287	459.51574	-436.73340	-1257.07390	453.20355	-485.49529	-1086.59032	350.84891	-390.10071	-1040.11294	356.45967	-463.58452	-895.69757	751.28150	-776.62285	-903.74501	636.90033	-746.96760	-1202.41372	450.06322	-736.00200	-1278.20882	451.24615	-685.89196	-1100.69557	343.27255	-760.56492	-1064.26226	355.48125	-689.91952	-960.55090	549.89050	-470.52296	-932.56319	664.44687	-398.54994	-1004.87387	573.13617	-401.98984	-964.73998	684.71510	-795.24206	-1028.08750	580.54857	-793.82301	-806.73889	1010.58583	-448.44392	-782.23341	901.15705	-461.10996	-804.79807	869.04710	-406.38679	-887.20720	981.18391	-373.07123	-857.83576	867.76307	-393.97077	-866.81170	1014.07707	-798.58334	-830.29202	881.17081	-789.48545	-975.72913	981.55691	-817.01173	-937.24999	849.32344	-803.37651	-870.86114	1225.83101	-460.16999	-1058.64724	1323.78801	-533.71740	-888.77657	1221.53297	-724.73465	-1068.85221	1323.09136	-634.31073	-856.85203	1779.49889	-590.93268	-788.91605	1704.02641	-407.67046	-789.88639	1729.22018	-765.33647	-729.38792	1668.77827	-571.47662	-733.17385	1667.70142	-617.47642	-841.88729	1559.89479	-317.01439	-1023.04401	1400.28892	-308.87618	-982.43014	1426.21903	-235.96220	-918.15851	1257.79711	-235.94288	-905.31944	1137.90348	-229.23778	-927.93865	1135.85205	-194.12290	-848.87647	1587.90030	-871.98287	-1018.76832	1429.49281	-877.83355	-974.86857	1444.62766	-946.53884	-898.20839	1290.76961	-910.69818	-871.97813	1176.24358	-927.71383	-892.85140	1175.71167	-970.99292	-977.04018	1176.86735	-488.58986	-991.92129	1162.25667	-700.96073	-966.00971	1174.03934	-488.06368	-983.67743	1172.82283	-662.19326	
64	0.63000000	-851.87488	767.81321	-431.52818	-882.77849	641.82578	-447.53181	-1171.46878	462.52503	-436.30778	-1253.86412	457.82098	-485.74456	-1085.87795	351.51496	-390.04773	-1038.93327	356.39515	-463.22324	-895.56483	759.78731	-778.15468	-903.43162	645.13428	-749.33157	-1199.32323	454.27661	-736.31488	-1274.20763	457.10247	-686.55940	-1099.69430	343.85168	-760.62776	-1063.66277	355.09326	-690.17666	-958.87640	555.77968	-468.48791	-933.30487	671.03525	-396.74481	-1004.23112	578.72951	-400.74553	-965.26068	692.50460	-796.95454	-1027.54900	587.57582	-795.11060	-799.16891	1016.88447	-447.52563	-778.38184	906.60043	-459.83759	-801.70801	874.59802	-405.42617	-881.19511	990.43225	-372.89952	-855.42160	876.04278	-392.80002	-858.26954	1022.02294	-799.85733	-826.20484	887.94238	-790.95218	-967.77629	993.16893	-818.34381	-933.92508	859.44151	-805.39584	-858.25534	1237.97335	-461.54537	-1046.34298	1334.37975	-535.25274	-875.48409	1233.36314	-725.94055	-1056.18792	1334.38861	-636.34658	-852.98581	1793.37529	-590.24893	-785.43813	1718.90638	-406.85311	-785.52364	1745.71191	-764.60575	-724.08105	1684.39842	-570.79114	-727.71587	1683.57534	-616.80628	-838.63887	1575.16818	-315.70438	-1020.28153	1415.35610	-307.94658	-979.79113	1441.75796	-235.40668	-914.06017	1273.67759	-235.77297	-900.14246	1154.31821	-229.06597	-922.20217	1152.26636	-193.47541	-844.86856	1606.08766	-873.50968	-1015.60558	1448.60410	-879.97073	-971.38040	1463.44581	-948.42361	-894.78099	1310.19113	-911.54640	-868.34493	1195.03299	-928.16880	-887.94706	1194.94832	-972.03241	-964.07114	1188.29381	-490.15404	-978.30824	1173.63520	-702.56461	-952.91626	1184.34413	-490.17153	-969.86868	1184.36248	-664.24573	
65	0.64000000	-852.19445	777.56970	-429.53734	-882.31988	650.94481	-444.78625	-1167.88945	466.60460	-435.83733	-1249.00248	463.88374	-485.61526	-1084.81549	352.59340	-390.01984	-1037.37597	356.32487	-462.72784	-895.22229	770.41707	-780.28566	-902.83917	655.26992	-752.19651	-1195.18606	459.65007	-736.94629	-1268.99971	464.20647	-687.25709	-1098.44158	344.59882	-760.74864	-1062.54418	354.85019	-690.51531	-956.69378	563.47594	-466.17958	-933.82416	679.63774	-394.56496	-1003.21240	586.09692	-399.21959	-965.74475	702.11788	-798.81283	-1026.73601	596.46370	-796.82711	-791.36102	1024.90746	-446.50982	-774.31851	913.65877	-458.56231	-798.46040	882.32764	-403.73112	-874.73690	1001.58839	-372.77093	-852.58609	886.25989	-391.41641	-849.31272	1031.60157	-801.32194	-821.65982	896.66325	-792.32306	-958.83922	1006.23336	-819.94549	-930.01681	871.68644	-808.12799	-844.79902	1252.17152	-462.70041	-1033.55025	1346.45868	-536.81941	-861.14019	1247.26719	-727.82366	-1042.94471	1346.44077	-637.76698	-848.48669	1808.76728	-589.58853	-781.70741	1735.10636	-406.18806	-781.07451	1763.54595	-763.83916	-718.43756	1701.17992	-570.02083	-721.90997	1700.60842	-616.19756	-835.29931	1591.82094	-314.50315	-1016.81770	1431.76484	-307.90453	-977.06843	1458.52072	-235.26073	-910.22909	1290.71659	-236.01745	-896.89057	1169.90413	-230.77792	-916.60183	1169.99692	-192.81947	-840.99655	1625.68376	-875.01888	-1012.10449	1468.95297	-881.49870	-967.91993	1483.52223	-950.06278	-891.61525	1330.57613	-912.36292	-864.64630	1215.29035	-928.63338	-883.14776	1215.54405	-973.21139	-949.79811	1201.25091	-491.72253	-963.47303	1186.56377	-704.16861	-938.91526	1197.13629	-491.86679	-955.16254	1197.10630	-666.45909	
66	0.65000000	-852.35706	789.16581	-427.51337	-881.47631	662.03594	-441.79179	-1163.08854	471.71487	-435.48427	-1242.33822	471.47040	-485.01959	-1083.35074	353.95639	-390.07095	-1035.39287	356.24848	-462.26989	-894.68971	782.86982	-782.87606	-901.80826	667.11656	-755.68462	-1189.89090	466.08023	-737.74518	-1262.41042	472.43564	-687.82523	-1096.84543	345.68448	-761.11033	-1060.79909	354.82008	-690.88313	-953.86497	572.98371	-463.53788	-933.97314	690.12207	-392.16407	-1001.51644	594.91187	-397.64531	-966.20046	713.59398	-800.87991	-1025.59976	607.12516	-799.20352	-783.32767	1034.53833	-445.34737	-770.02813	922.32513	-457.11207	-795.25502	892.47863	-401.28084	-867.79393	1014.37609	-372.52948	-849.57212	898.22586	-390.14255	-839.92951	1042.76161	-802.73252	-816.84305	907.02481	-793.85005	-949.75519	1020.90198	-821.66166	-925.69583	885.56081	-811.11270	-830.54380	1268.22238	-463.41277	-1020.40217	1359.94070	-538.14409	-846.42968	1263.18231	-729.70316	-1029.39317	1359.62528	-638.51776	-843.30653	1825.49101	-588.93624	-777.57558	1752.46219	-405.80567	-775.92853	1782.69214	-762.68394	-712.46516	1718.74731	-569.51172	-715.79166	1718.42373	-615.89074	-831.68564	1609.61937	-313.50102	-1013.20779	1449.38548	-308.51972	-974.04571	1476.33351	-235.47708	-906.60011	1308.75822	-236.61255	-895.16009	1185.01344	-233.83967	-911.31388	1188.74225	-192.38190	-837.10428	1646.35301	-876.36050	-1008.44559	1490.21322	-882.60577	-964.45624	1504.62480	-951.28136	-888.12077	1351.65046	-913.26447	-860.26177	1236.57339	-929.70402	-878.44040	1237.11370	-974.39154	-934.60496	1215.77406	-492.97487	-947.95359	1201.08030	-705.44168	-924.15766	1211.84476	-492.98330	-939.86991	1211.29145	-668.37374	
